<?xml version="1.0" standalone="no"?>
<!DOCTYPE svg PUBLIC "-//W3C//DTD SVG 20010904//EN"
 "http://www.w3.org/TR/2001/REC-SVG-20010904/DTD/svg10.dtd">
<svg version="1.0" xmlns="http://www.w3.org/2000/svg"
 width="90.000000pt" height="90.000000pt" viewBox="0 0 90.000000 90.000000"
 preserveAspectRatio="xMidYMid meet">

<g transform="translate(0.000000,90.000000) scale(0.100000,-0.100000)"
fill="" stroke="none"> 
<!-- #2967FE -->
<path d="M285 768 c-62 -32 -131 -104 -162 -172 -24 -52 -28 -74 -28 -146 0
-72 4 -94 28 -146 36 -77 104 -145 182 -181 51 -24 73 -28 145 -28 72 0 94 4
145 28 63 29 137 93 161 139 l14 26 -38 -10 c-56 -16 -152 -4 -218 26 -163 75
-251 267 -197 429 11 31 17 57 14 57 -3 -1 -24 -10 -46 -22z"/>
</g>
</svg>
